<?xml version="1.0" encoding="utf-8"?>
<!-- Generator: Adobe Illustrator 23.0.6, SVG Export Plug-In . SVG Version: 6.00 Build 0)  -->
<svg version="1.1" id="Layer_1" xmlns="http://www.w3.org/2000/svg" xmlns:xlink="http://www.w3.org/1999/xlink" x="0px" y="0px"
	 viewBox="0 0 600 600" style="enable-background:new 0 0 600 600;" xml:space="preserve">
<style type="text/css">
	.st0{display:none;}
	.st1{fill:#0A0817;}
</style>
<title>Asset 1</title>
<g>
	<g id="Layer_1-2">
		<circle class="st0" cx="300" cy="300" r="300"/>
		<path class="st1" d="M313.4,185.3V23.7l245,429.4c27.4-46.3,41.8-99.2,41.6-153.1C600,134.3,465.6,0,300,0S0,134.3,0,300
			c0,58.1,17.2,112.4,45.8,158.3L295,23.7v161.6L148.6,449.5c-28,10.9-54.8,24.8-80,41.3C123.7,557.5,206.8,600,300,600
			c94.9,0,179.5-44.1,234.4-113c-23.8-15.4-49.1-28.3-75.6-38.5L313.4,185.3z M304.6,420.2c-26.5,0-52.9,2.4-78.9,7.3L305,284.4
			L385.6,428C358.9,422.8,331.8,420.2,304.6,420.2L304.6,420.2z"/>
	</g>
</g>
</svg>
