<?xml version="1.0" encoding="UTF-8"?>
<svg width="30px" height="38px" viewBox="0 0 30 38" version="1.1" xmlns="http://www.w3.org/2000/svg" xmlns:xlink="http://www.w3.org/1999/xlink">
    <!-- Generator: Sketch 52.3 (67297) - http://www.bohemiancoding.com/sketch -->
    <title>logo</title>
    <desc>Created with Sketch.</desc>
    <g id="Page-1" stroke="none" stroke-width="1" fill="none" fill-rule="evenodd">
        <g id="Home-Page-Variant" transform="translate(-92.000000, -79.000000)" fill="#FFFFFF" fill-rule="nonzero">
            <g id="logo" transform="translate(91.662109, 77.654297)">
                <g id="Group-6" transform="translate(0.000000, 0.187370)">
                    <g id="Group-5" transform="translate(0.228737, 0.144786)">
                        <g id="Group-4" transform="translate(0.020075, 0.124054)">
                            <path d="M17.4419921,17.5784052 C18.732152,17.5784052 19.7780333,18.6242865 19.7780333,19.9144464 C19.7780333,21.2046064 18.732152,22.2504876 17.4419921,22.2504876 L11.3783226,22.2504876 C5.50549546,22.2504876 0.744628412,17.4896206 0.744628412,11.6167935 C0.744628412,5.74396634 5.50549546,0.983099286 11.3783226,0.983099286 L27.016207,0.983099286 C28.306367,0.983099286 29.3522482,2.02898056 29.3522482,3.3191405 C29.3522482,4.60930044 28.306367,5.65518171 27.016207,5.65518171 L11.3783226,5.65518171 C8.08581534,5.65518171 5.41671084,8.32428621 5.41671084,11.6167935 C5.41671084,14.9093007 8.08581534,17.5784052 11.3783226,17.5784052 L17.4419921,17.5784052 Z" id="Rectangle-2"></path>
                            <path d="M17.4419921,34.1737112 C18.732152,34.1737112 19.7780333,35.2195924 19.7780333,36.5097524 C19.7780333,37.7999123 18.732152,38.8457936 17.4419921,38.8457936 L11.3783226,38.8457936 C5.50549546,38.8457936 0.744628412,34.0849265 0.744628412,28.2120994 C0.744628412,22.3392723 5.50549546,17.5784052 11.3783226,17.5784052 L27.016207,17.5784052 C28.306367,17.5784052 29.3522482,18.6242865 29.3522482,19.9144464 C29.3522482,21.2046064 28.306367,22.2504876 27.016207,22.2504876 L11.3783226,22.2504876 C8.08581534,22.2504876 5.41671084,24.9195921 5.41671084,28.2120994 C5.41671084,31.5046067 8.08581534,34.1737112 11.3783226,34.1737112 L17.4419921,34.1737112 Z" id="Rectangle-2-Copy" transform="translate(15.048438, 28.212099) rotate(-180.000000) translate(-15.048438, -28.212099) "></path>
                            <polygon id="Path-3" fill-opacity="0.5" points="4.92655605 37.9034449 1.12881859 35.1821319 25.0151136 1.84753282 28.8128511 4.5688458"></polygon>
                        </g>
                    </g>
                </g>
            </g>
        </g>
    </g>
</svg>